<svg xmlns="http://www.w3.org/2000/svg" xmlns:xlink="http://www.w3.org/1999/xlink" width="100" zoomAndPan="magnify" viewBox="0 0 75 74.999997" height="100" preserveAspectRatio="xMidYMid meet" version="1.0"><defs><clipPath id="69610f8279"><path d="M 1.191406 7.5 L 73.941406 7.5 L 73.941406 67.5 L 1.191406 67.5 Z M 1.191406 7.5 " clip-rule="nonzero"/></clipPath></defs><g clip-path="url(#69610f8279)"><path fill="#000000" d="M 72.011719 7.648438 L 3.121094 7.648438 C 2.058594 7.648438 1.191406 8.515625 1.191406 9.574219 L 1.191406 55.027344 C 1.191406 56.085938 2.058594 56.953125 3.121094 56.953125 L 30.523438 56.953125 L 28.59375 62.921875 C 28.59375 62.921875 24.925781 63.210938 22.609375 65.8125 L 22.609375 67.351562 L 52.328125 67.351562 L 52.328125 65.8125 C 50.109375 63.210938 46.347656 62.921875 46.347656 62.921875 L 44.417969 56.953125 L 71.820312 56.953125 C 72.878906 56.953125 73.75 56.085938 73.75 55.027344 L 73.75 9.574219 C 73.941406 8.515625 73.074219 7.648438 72.011719 7.648438 Z M 71.625 54.160156 L 3.507812 54.160156 L 3.507812 10.535156 L 71.722656 10.535156 Z M 71.625 54.160156 " fill-opacity="1" fill-rule="nonzero"/></g></svg>