<svg xmlns="http://www.w3.org/2000/svg" xmlns:xlink="http://www.w3.org/1999/xlink" width="50" zoomAndPan="magnify" viewBox="0 0 37.5 37.499999" height="50" preserveAspectRatio="xMidYMid meet" version="1.0"><defs><clipPath id="cacbb8ea77"><path d="M 0 0 L 37.007812 0 L 37.007812 37.007812 L 0 37.007812 Z M 0 0 " clip-rule="nonzero"/></clipPath><clipPath id="4113444f62"><path d="M 12 0.886719 L 25 0.886719 L 25 35.675781 L 12 35.675781 Z M 12 0.886719 " clip-rule="nonzero"/></clipPath><clipPath id="844419ec8a"><path d="M 1.035156 1 L 13 1 L 13 35 L 1.035156 35 Z M 1.035156 1 " clip-rule="nonzero"/></clipPath><clipPath id="28ca7ceec7"><path d="M 24 1 L 35.824219 1 L 35.824219 35 L 24 35 Z M 24 1 " clip-rule="nonzero"/></clipPath></defs><g clip-path="url(#cacbb8ea77)"><path fill="#ffffff" d="M 0 0 L 37.007812 0 L 37.007812 37.007812 L 0 37.007812 Z M 0 0 " fill-opacity="1" fill-rule="nonzero"/><path fill="#ffffff" d="M 0 0 L 37.007812 0 L 37.007812 37.007812 L 0 37.007812 Z M 0 0 " fill-opacity="1" fill-rule="nonzero"/></g><g clip-path="url(#4113444f62)"><path fill="#f2c500" d="M 24.226562 1.878906 L 24.226562 34.683594 C 22.414062 35.328125 20.464844 35.675781 18.429688 35.675781 C 16.394531 35.675781 14.441406 35.328125 12.632812 34.683594 L 12.632812 1.878906 C 14.441406 1.234375 16.394531 0.886719 18.429688 0.886719 C 20.464844 0.886719 22.414062 1.234375 24.226562 1.878906 Z M 24.226562 1.878906 " fill-opacity="1" fill-rule="evenodd"/></g><g clip-path="url(#844419ec8a)"><path fill="#000000" d="M 12.632812 1.878906 L 12.632812 34.683594 C 5.875 32.296875 1.035156 25.851562 1.035156 18.28125 C 1.035156 10.710938 5.875 4.265625 12.632812 1.878906 Z M 12.632812 1.878906 " fill-opacity="1" fill-rule="evenodd"/></g><g clip-path="url(#28ca7ceec7)"><path fill="#e94b35" d="M 24.226562 34.683594 L 24.226562 1.878906 C 30.984375 4.265625 35.824219 10.710938 35.824219 18.28125 C 35.824219 25.851562 30.984375 32.296875 24.226562 34.683594 Z M 24.226562 34.683594 " fill-opacity="1" fill-rule="evenodd"/></g></svg>