<svg xmlns="http://www.w3.org/2000/svg" xmlns:xlink="http://www.w3.org/1999/xlink" width="50" zoomAndPan="magnify" viewBox="0 0 37.5 37.499999" height="50" preserveAspectRatio="xMidYMid meet" version="1.0"><defs><clipPath id="3c4826c07a"><path d="M 0 0 L 37.007812 0 L 37.007812 37.007812 L 0 37.007812 Z M 0 0 " clip-rule="nonzero"/></clipPath><clipPath id="b0fe9bc7fd"><path d="M 11 0 L 26 0 L 26 37.007812 L 11 37.007812 Z M 11 0 " clip-rule="nonzero"/></clipPath><clipPath id="f43fcd735f"><path d="M 25 1 L 37.007812 1 L 37.007812 36 L 25 36 Z M 25 1 " clip-rule="nonzero"/></clipPath></defs><g clip-path="url(#3c4826c07a)"><path fill="#ffffff" d="M 0 0 L 37.007812 0 L 37.007812 37.007812 L 0 37.007812 Z M 0 0 " fill-opacity="1" fill-rule="nonzero"/><path fill="#ffffff" d="M 0 0 L 37.007812 0 L 37.007812 37.007812 L 0 37.007812 Z M 0 0 " fill-opacity="1" fill-rule="nonzero"/></g><g clip-path="url(#b0fe9bc7fd)"><path fill="#eceff1" d="M 25.90625 1.550781 C 23.636719 0.558594 21.136719 0 18.503906 0 C 15.871094 0 13.371094 0.558594 11.101562 1.550781 L 11.101562 35.457031 C 13.371094 36.449219 15.871094 37.007812 18.503906 37.007812 C 21.136719 37.007812 23.636719 36.449219 25.90625 35.457031 Z M 25.90625 1.550781 " fill-opacity="1" fill-rule="nonzero"/></g><g clip-path="url(#f43fcd735f)"><path fill="#d50000" d="M 37.007812 18.503906 C 37.007812 10.917969 32.4375 4.40625 25.90625 1.550781 L 25.90625 35.457031 C 32.4375 32.601562 37.007812 26.089844 37.007812 18.503906 Z M 37.007812 18.503906 " fill-opacity="1" fill-rule="nonzero"/></g><path fill="#1b5e20" d="M 0 18.503906 C 0 26.089844 4.570312 32.601562 11.101562 35.457031 L 11.101562 1.550781 C 4.570312 4.40625 0 10.917969 0 18.503906 Z M 0 18.503906 " fill-opacity="1" fill-rule="nonzero"/><path fill="#039be5" d="M 20.265625 20.796875 C 20.027344 20.863281 19.609375 20.933594 19.101562 20.871094 C 18.601562 20.808594 18.042969 20.902344 17.660156 20.699219 C 17.183594 20.839844 16.976562 20.441406 16.902344 20.144531 C 16.851562 20.410156 16.855469 20.554688 16.664062 20.5 C 16.472656 20.441406 15.882812 20.164062 15.742188 20.109375 C 15.597656 20.050781 15.566406 20.1875 15.800781 20.316406 C 16.03125 20.441406 16.246094 20.589844 16.253906 20.679688 C 16.257812 20.769531 16.050781 20.882812 15.980469 20.917969 C 16.332031 20.917969 16.71875 20.996094 16.84375 21.023438 C 17.078125 21.078125 17.09375 21.25 16.710938 21.515625 C 17.683594 21.40625 17.527344 21.898438 18.019531 21.894531 C 18.378906 21.890625 18.894531 21.886719 19.0625 21.886719 C 19.453125 21.886719 19.476562 21.613281 19.609375 21.570312 C 19.90625 21.472656 20.210938 21.382812 20.445312 21.304688 C 20.207031 21.25 20.074219 21.1875 20.074219 21.128906 C 20.074219 21.074219 20.550781 20.882812 20.785156 20.785156 C 20.699219 20.757812 20.503906 20.730469 20.265625 20.796875 Z M 20.265625 20.796875 " fill-opacity="1" fill-rule="nonzero"/><path fill="#fbc02d" d="M 19.609375 20.585938 C 19.550781 20.496094 19.414062 20.480469 19.339844 20.578125 C 18.941406 20.496094 18.042969 20.519531 17.75 20.578125 C 17.683594 20.480469 17.542969 20.496094 17.488281 20.585938 C 17.425781 20.675781 17.464844 20.789062 17.535156 20.832031 C 17.457031 20.945312 17.488281 21.261719 17.535156 21.394531 C 17.464844 21.4375 17.425781 21.546875 17.488281 21.640625 C 17.546875 21.726562 17.683594 21.746094 17.75 21.644531 C 18.085938 21.785156 19 21.785156 19.339844 21.644531 C 19.414062 21.746094 19.550781 21.722656 19.609375 21.640625 C 19.667969 21.546875 19.628906 21.4375 19.5625 21.394531 C 19.609375 21.261719 19.632812 20.945312 19.5625 20.832031 C 19.632812 20.789062 19.671875 20.675781 19.609375 20.585938 Z M 19.609375 20.585938 " fill-opacity="1" fill-rule="nonzero"/><path fill="#bf360c" d="M 19.644531 20.558594 C 19.609375 20.5 19.539062 20.464844 19.472656 20.464844 C 19.414062 20.464844 19.363281 20.488281 19.328125 20.527344 C 19 20.464844 18.414062 20.46875 18.027344 20.496094 C 18.027344 20.496094 18.027344 20.496094 18.023438 20.496094 C 18.019531 20.496094 18.015625 20.496094 18.007812 20.496094 L 18.007812 20.5 C 17.917969 20.507812 17.828125 20.515625 17.769531 20.527344 C 17.734375 20.488281 17.679688 20.464844 17.625 20.464844 C 17.554688 20.464844 17.488281 20.5 17.449219 20.558594 C 17.414062 20.605469 17.402344 20.667969 17.414062 20.726562 C 17.421875 20.769531 17.445312 20.8125 17.476562 20.84375 C 17.417969 20.984375 17.441406 21.242188 17.480469 21.375 C 17.449219 21.410156 17.421875 21.453125 17.414062 21.496094 C 17.402344 21.558594 17.414062 21.617188 17.449219 21.667969 C 17.488281 21.726562 17.554688 21.761719 17.625 21.761719 C 17.679688 21.761719 17.730469 21.738281 17.765625 21.703125 C 17.941406 21.761719 18.242188 21.796875 18.542969 21.796875 C 19.054688 21.796875 19.285156 21.71875 19.332031 21.703125 C 19.367188 21.738281 19.417969 21.761719 19.472656 21.761719 C 19.539062 21.761719 19.609375 21.726562 19.644531 21.667969 C 19.679688 21.617188 19.691406 21.558594 19.679688 21.496094 C 19.667969 21.453125 19.648438 21.410156 19.613281 21.375 C 19.652344 21.242188 19.671875 20.984375 19.621094 20.84375 C 19.648438 20.8125 19.675781 20.769531 19.679688 20.726562 C 19.691406 20.667969 19.679688 20.605469 19.644531 20.558594 Z M 17.804688 21.609375 C 17.828125 21.546875 17.816406 21.480469 17.785156 21.445312 C 17.738281 21.398438 17.671875 21.386719 17.613281 21.417969 L 17.660156 21.5 C 17.691406 21.480469 17.707031 21.5 17.714844 21.507812 C 17.738281 21.53125 17.746094 21.570312 17.714844 21.617188 C 17.695312 21.648438 17.660156 21.664062 17.625 21.664062 C 17.585938 21.664062 17.546875 21.648438 17.523438 21.609375 C 17.5 21.574219 17.5 21.539062 17.507812 21.515625 C 17.511719 21.480469 17.53125 21.453125 17.5625 21.433594 L 17.589844 21.410156 L 17.578125 21.378906 C 17.53125 21.25 17.507812 20.957031 17.570312 20.855469 L 17.597656 20.820312 L 17.558594 20.792969 C 17.53125 20.777344 17.507812 20.742188 17.503906 20.707031 C 17.496094 20.6875 17.496094 20.648438 17.523438 20.613281 C 17.542969 20.582031 17.585938 20.558594 17.625 20.558594 C 17.660156 20.558594 17.6875 20.578125 17.710938 20.605469 C 17.742188 20.652344 17.738281 20.691406 17.714844 20.71875 C 17.703125 20.726562 17.683594 20.738281 17.660156 20.726562 L 17.613281 20.804688 C 17.632812 20.820312 17.660156 20.824219 17.683594 20.824219 C 17.71875 20.824219 17.753906 20.808594 17.777344 20.78125 C 17.8125 20.746094 17.820312 20.6875 17.808594 20.632812 C 17.929688 20.65625 18.039062 20.921875 18.132812 21.160156 C 18.214844 21.378906 18.292969 21.589844 18.402344 21.699219 C 18.167969 21.691406 17.945312 21.660156 17.804688 21.609375 Z M 18.59375 21.703125 C 18.441406 21.6875 18.328125 21.390625 18.222656 21.128906 C 18.136719 20.90625 18.050781 20.703125 17.945312 20.601562 C 17.96875 20.597656 17.996094 20.597656 18.023438 20.59375 C 18.160156 20.59375 18.28125 20.882812 18.394531 21.136719 C 18.492188 21.363281 18.589844 21.585938 18.714844 21.699219 C 18.671875 21.699219 18.632812 21.703125 18.59375 21.703125 Z M 18.890625 21.6875 C 18.730469 21.675781 18.597656 21.371094 18.476562 21.101562 C 18.386719 20.886719 18.296875 20.6875 18.1875 20.582031 C 18.21875 20.582031 18.25 20.578125 18.285156 20.578125 C 18.421875 20.585938 18.546875 20.882812 18.667969 21.140625 C 18.761719 21.363281 18.859375 21.574219 18.980469 21.679688 C 18.949219 21.679688 18.917969 21.683594 18.890625 21.6875 Z M 19.523438 20.855469 C 19.582031 20.953125 19.566406 21.246094 19.519531 21.378906 L 19.503906 21.410156 L 19.535156 21.429688 C 19.5625 21.449219 19.582031 21.480469 19.589844 21.515625 C 19.59375 21.539062 19.59375 21.574219 19.570312 21.613281 C 19.546875 21.644531 19.511719 21.667969 19.472656 21.667969 C 19.4375 21.667969 19.40625 21.648438 19.382812 21.621094 C 19.351562 21.570312 19.359375 21.527344 19.382812 21.507812 C 19.390625 21.5 19.402344 21.480469 19.4375 21.5 L 19.484375 21.421875 C 19.425781 21.386719 19.359375 21.398438 19.3125 21.445312 C 19.28125 21.480469 19.269531 21.542969 19.292969 21.613281 C 19.246094 21.628906 19.191406 21.640625 19.128906 21.65625 C 19 21.628906 18.863281 21.347656 18.753906 21.105469 C 18.652344 20.886719 18.558594 20.683594 18.441406 20.570312 C 18.75 20.566406 19.070312 20.578125 19.289062 20.617188 C 19.273438 20.683594 19.28125 20.746094 19.3125 20.78125 C 19.34375 20.808594 19.375 20.824219 19.410156 20.824219 C 19.4375 20.824219 19.457031 20.816406 19.484375 20.804688 L 19.4375 20.722656 C 19.410156 20.742188 19.386719 20.726562 19.378906 20.714844 C 19.359375 20.695312 19.347656 20.652344 19.382812 20.609375 C 19.410156 20.566406 19.449219 20.558594 19.472656 20.558594 C 19.511719 20.5625 19.546875 20.578125 19.570312 20.613281 C 19.59375 20.648438 19.59375 20.683594 19.589844 20.707031 C 19.582031 20.742188 19.5625 20.773438 19.53125 20.792969 L 19.496094 20.816406 Z M 19.523438 20.855469 " fill-opacity="1" fill-rule="nonzero"/><path fill="#ffffff" d="M 16.007812 20.746094 C 15.792969 20.746094 15.792969 21.078125 16.007812 21.078125 C 16.21875 21.078125 16.222656 20.746094 16.007812 20.746094 Z M 16.007812 20.746094 " fill-opacity="1" fill-rule="nonzero"/><path fill="#1976d2" d="M 16.007812 20.699219 C 15.871094 20.699219 15.800781 20.804688 15.800781 20.914062 C 15.800781 21.019531 15.867188 21.125 16.007812 21.125 C 16.144531 21.125 16.214844 21.019531 16.214844 20.914062 C 16.214844 20.804688 16.144531 20.699219 16.007812 20.699219 Z M 16.007812 21.03125 C 15.914062 21.03125 15.890625 20.957031 15.890625 20.914062 C 15.890625 20.867188 15.914062 20.789062 16.007812 20.789062 C 16.085938 20.789062 16.121094 20.851562 16.121094 20.914062 C 16.121094 20.957031 16.097656 21.03125 16.007812 21.03125 Z M 16.007812 21.03125 " fill-opacity="1" fill-rule="nonzero"/><path fill="#ffffff" d="M 16.855469 20.011719 C 16.644531 20.011719 16.644531 20.347656 16.855469 20.347656 C 17.066406 20.347656 17.070312 20.011719 16.855469 20.011719 Z M 16.855469 20.011719 " fill-opacity="1" fill-rule="nonzero"/><path fill="#1976d2" d="M 16.855469 19.964844 C 16.722656 19.964844 16.648438 20.070312 16.648438 20.175781 C 16.648438 20.285156 16.71875 20.390625 16.855469 20.390625 C 16.992188 20.390625 17.066406 20.28125 17.066406 20.175781 C 17.0625 20.070312 16.992188 19.964844 16.855469 19.964844 Z M 16.855469 20.300781 C 16.765625 20.300781 16.738281 20.222656 16.738281 20.175781 C 16.738281 20.132812 16.765625 20.054688 16.855469 20.054688 C 16.933594 20.054688 16.972656 20.113281 16.972656 20.175781 C 16.972656 20.222656 16.945312 20.300781 16.855469 20.300781 Z M 16.855469 20.300781 " fill-opacity="1" fill-rule="nonzero"/><path fill="#ffffff" d="M 20.367188 21.171875 C 20.152344 21.171875 20.152344 21.507812 20.367188 21.507812 C 20.582031 21.507812 20.585938 21.171875 20.367188 21.171875 Z M 20.367188 21.171875 " fill-opacity="1" fill-rule="nonzero"/><path fill="#1976d2" d="M 20.367188 21.125 C 20.230469 21.125 20.160156 21.230469 20.160156 21.335938 C 20.160156 21.445312 20.230469 21.550781 20.367188 21.550781 C 20.503906 21.550781 20.574219 21.445312 20.574219 21.335938 C 20.574219 21.28125 20.554688 21.230469 20.523438 21.191406 C 20.488281 21.148438 20.433594 21.125 20.367188 21.125 Z M 20.367188 21.460938 C 20.277344 21.460938 20.253906 21.382812 20.253906 21.335938 C 20.253906 21.292969 20.277344 21.214844 20.367188 21.214844 C 20.449219 21.214844 20.484375 21.273438 20.484375 21.335938 C 20.484375 21.382812 20.457031 21.460938 20.367188 21.460938 Z M 20.367188 21.460938 " fill-opacity="1" fill-rule="nonzero"/><path fill="#fbc02d" d="M 15.378906 20.019531 C 15.328125 20.101562 15.453125 20.25 15.582031 20.3125 C 15.710938 20.371094 15.824219 20.324219 15.863281 20.265625 C 15.902344 20.214844 15.863281 20.070312 15.714844 19.988281 C 15.582031 19.917969 15.429688 19.945312 15.378906 20.019531 Z M 15.378906 20.019531 " fill-opacity="1" fill-rule="nonzero"/><path fill="#fbc02d" d="M 16.667969 21.328125 C 16.527344 21.375 16.433594 21.507812 16.449219 21.601562 C 16.464844 21.691406 16.652344 21.707031 16.785156 21.660156 C 16.917969 21.613281 16.964844 21.480469 16.941406 21.417969 C 16.910156 21.320312 16.824219 21.277344 16.667969 21.328125 Z M 16.667969 21.328125 " fill-opacity="1" fill-rule="nonzero"/><path fill="#fbc02d" d="M 20.632812 20.65625 C 20.496094 20.703125 20.433594 20.816406 20.453125 20.882812 C 20.480469 20.976562 20.5625 21.023438 20.722656 20.976562 C 20.863281 20.933594 21.019531 20.78125 20.984375 20.695312 C 20.9375 20.59375 20.765625 20.609375 20.632812 20.65625 Z M 20.632812 20.65625 " fill-opacity="1" fill-rule="nonzero"/><path fill="#fbc02d" d="M 21.359375 22.023438 C 21.328125 21.964844 21.179688 21.90625 21.117188 21.882812 C 21.128906 21.8125 21.078125 21.609375 21.023438 21.550781 C 21.097656 21.535156 21.128906 21.425781 21.0625 21.371094 C 21.007812 21.328125 20.933594 21.355469 20.910156 21.390625 C 20.882812 21.421875 20.882812 21.53125 20.960938 21.550781 C 20.972656 21.621094 21.035156 21.863281 20.980469 21.960938 C 21.085938 21.964844 21.273438 22.027344 21.324219 22.074219 C 21.300781 22.15625 21.390625 22.214844 21.429688 22.210938 C 21.46875 22.207031 21.53125 22.15625 21.523438 22.085938 C 21.519531 21.992188 21.414062 21.960938 21.359375 22.023438 Z M 21.359375 22.023438 " fill-opacity="1" fill-rule="nonzero"/><path fill="#fbc02d" d="M 22.882812 20.640625 C 22.835938 20.597656 22.675781 20.59375 22.613281 20.589844 C 22.605469 20.519531 22.488281 20.339844 22.421875 20.304688 C 22.488281 20.265625 22.488281 20.152344 22.402344 20.117188 C 22.335938 20.097656 22.277344 20.148438 22.265625 20.1875 C 22.25 20.226562 22.285156 20.332031 22.367188 20.324219 C 22.398438 20.386719 22.53125 20.59375 22.507812 20.703125 C 22.609375 20.671875 22.808594 20.671875 22.871094 20.695312 C 22.871094 20.78125 22.972656 20.808594 23.007812 20.789062 C 23.042969 20.773438 23.09375 20.707031 23.0625 20.640625 C 23.027344 20.554688 22.917969 20.5625 22.882812 20.640625 Z M 22.882812 20.640625 " fill-opacity="1" fill-rule="nonzero"/><path fill="#fbc02d" d="M 23.738281 18.804688 C 23.679688 18.789062 23.507812 18.820312 23.449219 18.847656 C 23.414062 18.792969 23.285156 18.675781 23.222656 18.65625 C 23.265625 18.585938 23.210938 18.484375 23.125 18.5 C 23.058594 18.511719 23.027344 18.585938 23.035156 18.625 C 23.039062 18.667969 23.113281 18.746094 23.183594 18.703125 C 23.238281 18.742188 23.382812 18.894531 23.410156 19 C 23.484375 18.925781 23.683594 18.867188 23.753906 18.863281 C 23.789062 18.9375 23.890625 18.914062 23.917969 18.878906 C 23.941406 18.847656 23.953125 18.769531 23.898438 18.71875 C 23.832031 18.664062 23.730469 18.71875 23.738281 18.804688 Z M 23.738281 18.804688 " fill-opacity="1" fill-rule="nonzero"/><path fill="#558b2f" d="M 23.5625 18.101562 C 23.519531 17.972656 23.308594 17.710938 23.203125 17.597656 C 23.28125 17.753906 23.121094 18.074219 23.285156 18.324219 C 23.433594 18.550781 23.421875 18.78125 23.367188 19.046875 L 23.433594 19.09375 C 23.480469 18.640625 23.636719 18.566406 23.738281 18.46875 C 23.898438 18.320312 24.085938 18.070312 24.050781 17.894531 C 24.027344 17.789062 24 17.648438 24.011719 17.554688 C 23.847656 17.605469 23.640625 17.941406 23.5625 18.101562 Z M 23.5625 18.101562 " fill-opacity="1" fill-rule="nonzero"/><path fill="#558b2f" d="M 23.125 19.691406 C 23.144531 19.558594 23.121094 19.222656 23.097656 19.09375 C 22.703125 19.179688 22.582031 19.714844 22.636719 20.171875 C 22.679688 20.519531 22.523438 20.644531 22.316406 20.828125 L 22.375 20.925781 C 22.53125 20.707031 22.789062 20.441406 23.097656 20.308594 C 23.414062 20.175781 23.496094 19.554688 23.753906 19.292969 C 23.414062 19.320312 23.292969 19.519531 23.125 19.691406 Z M 23.125 19.691406 " fill-opacity="1" fill-rule="nonzero"/><path fill="#558b2f" d="M 22 20.5625 C 21.988281 20.769531 21.507812 20.964844 21.34375 21.460938 C 21.277344 21.652344 21.207031 21.773438 20.929688 21.957031 L 20.914062 22.035156 C 21.523438 21.582031 21.703125 21.792969 22.113281 21.652344 C 22.523438 21.511719 22.417969 21.222656 22.519531 20.996094 C 22.339844 21.015625 22.078125 21.128906 21.941406 21.242188 C 22.015625 21.097656 22.054688 20.8125 22 20.5625 Z M 22 20.5625 " fill-opacity="1" fill-rule="nonzero"/><path fill="#558b2f" d="M 20.652344 21.738281 C 19.847656 21.628906 19.753906 22.238281 19.347656 22.320312 C 19.4375 22.398438 19.371094 22.429688 19.792969 22.644531 C 20.21875 22.855469 20.730469 22.433594 20.949219 22.464844 C 20.75 22.339844 20.460938 22.277344 20.269531 22.242188 C 20.441406 22.144531 20.539062 21.847656 20.652344 21.738281 Z M 20.652344 21.738281 " fill-opacity="1" fill-rule="nonzero"/><path fill="#1b5e20" d="M 23.410156 18.9375 C 23.066406 19.109375 22.828125 19.683594 22.753906 20.113281 C 22.695312 20.4375 22.621094 20.554688 22.527344 20.679688 C 22.1875 20.695312 21.851562 20.996094 21.675781 21.222656 C 21.519531 21.425781 21.25 21.699219 21.019531 21.90625 C 20.65625 21.878906 20.242188 22.042969 20.007812 22.164062 C 19.761719 22.289062 19.539062 22.289062 19.347656 22.25 C 18.828125 22.15625 18.234375 22.148438 17.640625 22.597656 C 17.59375 22.625 17.691406 22.738281 17.75 22.691406 C 18.253906 22.289062 18.945312 22.125 19.539062 22.507812 C 19.867188 22.722656 20.757812 22.433594 21.058594 21.910156 C 21.054688 21.910156 21.050781 21.910156 21.046875 21.910156 C 21.136719 21.839844 21.226562 21.777344 21.570312 21.664062 C 22.035156 21.503906 22.398438 21.128906 22.546875 20.675781 C 22.542969 20.675781 22.539062 20.675781 22.535156 20.675781 C 22.671875 20.53125 22.921875 20.277344 23.132812 20.011719 C 23.375 19.691406 23.484375 19.261719 23.433594 18.945312 C 23.472656 18.738281 23.589844 18.515625 23.714844 18.347656 C 23.851562 18.15625 23.839844 17.710938 23.625 17.355469 C 23.335938 17.597656 23.472656 18.316406 23.410156 18.9375 Z M 23.410156 18.9375 " fill-opacity="1" fill-rule="nonzero"/><path fill="#827717" d="M 16.019531 21.542969 C 16.050781 21.4375 16 21.3125 15.925781 21.316406 C 15.855469 21.320312 15.871094 21.5 15.910156 21.578125 C 15.945312 21.65625 15.960938 21.761719 15.972656 21.90625 L 16.089844 21.980469 C 16.019531 21.890625 15.992188 21.652344 16.019531 21.542969 Z M 16.019531 21.542969 " fill-opacity="1" fill-rule="nonzero"/><path fill="#fbc02d" d="M 15.929688 21.523438 C 15.832031 21.488281 15.804688 21.539062 15.839844 21.621094 C 15.894531 21.726562 16.019531 21.738281 16.066406 21.660156 C 16.128906 21.550781 16.089844 21.484375 16.046875 21.507812 C 16.003906 21.53125 15.953125 21.535156 15.929688 21.523438 Z M 15.929688 21.523438 " fill-opacity="1" fill-rule="nonzero"/><path fill="#827717" d="M 15.628906 21.964844 C 15.550781 21.949219 15.378906 21.980469 15.394531 22.054688 C 15.410156 22.132812 15.542969 22.148438 15.628906 22.089844 C 15.71875 22.027344 15.945312 21.992188 16.046875 22.042969 L 15.949219 21.945312 C 15.816406 21.96875 15.714844 21.984375 15.628906 21.964844 Z M 15.628906 21.964844 " fill-opacity="1" fill-rule="nonzero"/><path fill="#fbc02d" d="M 15.585938 22 C 15.601562 22.023438 15.613281 22.074219 15.605469 22.125 C 15.59375 22.171875 15.664062 22.195312 15.746094 22.101562 C 15.808594 22.039062 15.761719 21.90625 15.648438 21.886719 C 15.566406 21.867188 15.527344 21.910156 15.585938 22 Z M 15.585938 22 " fill-opacity="1" fill-rule="nonzero"/><path fill="#827717" d="M 14.5 20.222656 C 14.519531 20.304688 14.507812 20.425781 14.484375 20.570312 L 14.59375 20.660156 C 14.546875 20.554688 14.558594 20.3125 14.613281 20.214844 C 14.667969 20.121094 14.644531 19.984375 14.574219 19.96875 C 14.503906 19.960938 14.480469 20.136719 14.5 20.222656 Z M 14.5 20.222656 " fill-opacity="1" fill-rule="nonzero"/><path fill="#fbc02d" d="M 14.527344 20.175781 C 14.441406 20.117188 14.40625 20.160156 14.421875 20.246094 C 14.445312 20.359375 14.570312 20.40625 14.632812 20.339844 C 14.71875 20.25 14.695312 20.179688 14.648438 20.1875 C 14.601562 20.203125 14.550781 20.191406 14.527344 20.175781 Z M 14.527344 20.175781 " fill-opacity="1" fill-rule="nonzero"/><path fill="#827717" d="M 14.15625 20.566406 C 14.078125 20.535156 13.90625 20.53125 13.910156 20.609375 C 13.914062 20.6875 14.039062 20.730469 14.136719 20.6875 C 14.234375 20.640625 14.519531 20.65625 14.609375 20.722656 L 14.484375 20.589844 C 14.34375 20.597656 14.234375 20.597656 14.15625 20.566406 Z M 14.15625 20.566406 " fill-opacity="1" fill-rule="nonzero"/><path fill="#fbc02d" d="M 14.109375 20.59375 C 14.121094 20.613281 14.121094 20.667969 14.105469 20.714844 C 14.085938 20.761719 14.152344 20.796875 14.25 20.722656 C 14.316406 20.664062 14.292969 20.53125 14.1875 20.488281 C 14.109375 20.457031 14.0625 20.492188 14.109375 20.59375 Z M 14.109375 20.59375 " fill-opacity="1" fill-rule="nonzero"/><path fill="#827717" d="M 13.734375 18.546875 C 13.71875 18.628906 13.640625 18.75 13.5625 18.867188 L 13.605469 19.0625 C 13.640625 18.875 13.753906 18.65625 13.839844 18.589844 C 13.929688 18.527344 13.960938 18.390625 13.898438 18.347656 C 13.839844 18.304688 13.75 18.460938 13.734375 18.546875 Z M 13.734375 18.546875 " fill-opacity="1" fill-rule="nonzero"/><path fill="#fbc02d" d="M 13.78125 18.515625 C 13.726562 18.421875 13.671875 18.445312 13.65625 18.53125 C 13.632812 18.652344 13.730469 18.742188 13.8125 18.710938 C 13.925781 18.664062 13.929688 18.585938 13.882812 18.574219 C 13.832031 18.566406 13.792969 18.535156 13.78125 18.515625 Z M 13.78125 18.515625 " fill-opacity="1" fill-rule="nonzero"/><path fill="#827717" d="M 13.25 18.671875 C 13.199219 18.605469 13.050781 18.511719 13.011719 18.578125 C 12.976562 18.648438 13.066406 18.753906 13.171875 18.765625 C 13.277344 18.777344 13.515625 18.949219 13.566406 19.050781 L 13.519531 18.867188 C 13.394531 18.800781 13.304688 18.742188 13.25 18.671875 Z M 13.25 18.671875 " fill-opacity="1" fill-rule="nonzero"/><path fill="#fbc02d" d="M 13.195312 18.667969 C 13.195312 18.695312 13.167969 18.742188 13.132812 18.773438 C 13.097656 18.804688 13.132812 18.871094 13.253906 18.859375 C 13.339844 18.84375 13.386719 18.71875 13.3125 18.621094 C 13.257812 18.554688 13.203125 18.5625 13.195312 18.667969 Z M 13.195312 18.667969 " fill-opacity="1" fill-rule="nonzero"/><path fill="#1b5e20" d="M 17.753906 22.214844 C 17.640625 22.246094 17.558594 22.289062 17.492188 22.164062 C 17.421875 22.042969 17.386719 22.09375 17.355469 22.132812 C 17.328125 22.171875 17.25 22.171875 17.175781 22.042969 C 17.109375 21.914062 17.050781 21.871094 16.964844 21.878906 C 16.878906 21.890625 16.851562 21.9375 16.898438 22.019531 C 16.941406 22.101562 16.898438 22.167969 16.824219 22.085938 C 16.757812 22.011719 16.65625 21.902344 16.574219 21.90625 C 16.492188 21.910156 16.410156 21.921875 16.464844 22.003906 C 16.519531 22.085938 16.519531 22.179688 16.421875 22.101562 C 16.332031 22.023438 16.265625 21.992188 16.183594 22 C 15.875 21.871094 15.6875 21.574219 15.675781 21.402344 C 15.664062 21.226562 15.625 21.273438 15.601562 21.3125 C 15.578125 21.355469 15.503906 21.414062 15.46875 21.277344 C 15.429688 21.105469 15.457031 20.957031 15.394531 20.882812 C 15.328125 20.804688 15.261719 20.769531 15.222656 20.910156 C 15.191406 21.054688 15.117188 20.976562 15.117188 20.855469 C 15.121094 20.738281 15.125 20.621094 15.074219 20.566406 C 15.023438 20.515625 14.980469 20.519531 14.980469 20.632812 C 14.980469 20.746094 14.933594 20.769531 14.886719 20.664062 C 14.832031 20.554688 14.746094 20.5 14.75 20.613281 C 14.753906 20.65625 14.757812 20.6875 14.765625 20.722656 C 14.429688 20.53125 14.304688 20.375 14.292969 20.167969 C 14.28125 19.992188 14.285156 19.90625 14.34375 19.832031 C 14.402344 19.761719 14.371094 19.683594 14.296875 19.75 C 14.21875 19.816406 14.148438 19.796875 14.160156 19.675781 C 14.179688 19.5625 14.226562 19.410156 14.183594 19.324219 C 14.140625 19.230469 14.046875 19.234375 14.019531 19.355469 C 14.007812 19.40625 13.96875 19.460938 13.917969 19.460938 C 13.863281 19.460938 13.867188 19.335938 13.890625 19.261719 C 13.910156 19.179688 13.84375 19.125 13.808594 19.191406 C 13.769531 19.261719 13.683594 19.328125 13.648438 19.226562 C 13.644531 19.222656 13.640625 19.222656 13.640625 19.21875 C 13.613281 18.988281 13.460938 18.542969 13.535156 18.453125 C 13.617188 18.355469 13.613281 18.335938 13.558594 18.292969 C 13.5 18.246094 13.558594 18.15625 13.644531 18.121094 C 13.769531 18.070312 13.824219 17.964844 13.730469 17.96875 C 13.570312 17.980469 13.480469 17.953125 13.570312 17.898438 C 13.6875 17.828125 13.808594 17.746094 13.78125 17.644531 C 13.773438 17.605469 13.722656 17.59375 13.664062 17.617188 C 13.601562 17.636719 13.546875 17.601562 13.613281 17.550781 C 13.703125 17.492188 13.628906 17.425781 13.695312 17.378906 C 13.761719 17.335938 13.734375 17.273438 13.695312 17.28125 C 13.65625 17.285156 13.558594 17.398438 13.519531 17.347656 C 13.480469 17.296875 13.429688 17.242188 13.382812 17.339844 C 13.316406 17.480469 13.398438 17.570312 13.355469 17.636719 C 13.3125 17.703125 13.257812 17.726562 13.203125 17.652344 C 13.152344 17.582031 13.074219 17.601562 13.070312 17.691406 C 13.0625 17.785156 13.101562 17.835938 13.160156 17.921875 C 13.214844 18.003906 13.203125 18.070312 13.101562 18.019531 C 13.007812 17.976562 12.957031 17.976562 12.953125 18.058594 C 12.945312 18.140625 12.988281 18.171875 13.117188 18.234375 C 13.246094 18.292969 13.265625 18.3125 13.277344 18.382812 C 13.296875 18.503906 13.410156 18.480469 13.449219 18.644531 C 13.476562 18.785156 13.539062 18.996094 13.554688 19.203125 C 13.542969 19.214844 13.539062 19.234375 13.542969 19.253906 C 13.449219 19.21875 13.441406 19.296875 13.472656 19.339844 C 13.515625 19.398438 13.53125 19.449219 13.472656 19.4375 C 13.414062 19.421875 13.300781 19.378906 13.320312 19.472656 C 13.34375 19.5625 13.535156 19.632812 13.65625 19.65625 C 13.777344 19.679688 13.789062 19.738281 13.730469 19.757812 C 13.675781 19.777344 13.640625 19.769531 13.554688 19.757812 C 13.46875 19.742188 13.453125 19.8125 13.519531 19.886719 C 13.589844 19.964844 13.761719 19.984375 13.839844 19.992188 C 13.96875 20.007812 13.976562 20.109375 13.925781 20.105469 C 13.867188 20.105469 13.761719 20.0625 13.753906 20.121094 C 13.742188 20.179688 13.894531 20.246094 14.003906 20.234375 C 14.117188 20.222656 14.132812 20.25 14.15625 20.28125 C 14.300781 20.488281 14.558594 20.722656 14.734375 20.808594 C 14.722656 20.816406 14.730469 20.832031 14.714844 20.832031 C 14.617188 20.828125 14.542969 20.847656 14.621094 20.921875 C 14.699219 20.996094 14.753906 21.015625 14.800781 21.023438 C 14.851562 21.035156 14.859375 21.105469 14.804688 21.128906 C 14.75 21.15625 14.699219 21.136719 14.652344 21.113281 C 14.601562 21.09375 14.523438 21.121094 14.601562 21.210938 C 14.671875 21.304688 14.789062 21.347656 14.933594 21.347656 C 15.082031 21.347656 15.128906 21.414062 15.039062 21.464844 C 14.953125 21.515625 14.890625 21.519531 14.792969 21.5 C 14.699219 21.488281 14.679688 21.570312 14.8125 21.652344 C 14.945312 21.738281 15.074219 21.71875 15.191406 21.675781 C 15.3125 21.636719 15.320312 21.683594 15.296875 21.722656 C 15.277344 21.757812 15.289062 21.816406 15.394531 21.78125 C 15.5 21.746094 15.605469 21.710938 15.734375 21.804688 C 15.839844 21.882812 15.957031 21.988281 16.085938 22.070312 C 16.078125 22.113281 16.078125 22.15625 16.015625 22.171875 C 15.949219 22.191406 15.867188 22.234375 15.835938 22.277344 C 15.804688 22.320312 15.804688 22.429688 16.058594 22.390625 C 16.316406 22.34375 16.328125 22.359375 16.308594 22.445312 C 16.289062 22.527344 16.285156 22.628906 16.433594 22.589844 C 16.621094 22.546875 16.71875 22.398438 16.785156 22.46875 C 16.824219 22.511719 16.773438 22.574219 16.734375 22.617188 C 16.675781 22.683594 16.820312 22.746094 16.90625 22.675781 C 16.984375 22.613281 17.085938 22.488281 17.144531 22.515625 C 17.207031 22.535156 17.148438 22.613281 17.125 22.660156 C 17.105469 22.703125 17.125 22.796875 17.230469 22.746094 C 17.335938 22.691406 17.398438 22.371094 17.714844 22.414062 C 17.808594 22.234375 18.554688 22.136719 19.171875 22.675781 C 19.214844 22.71875 19.265625 22.71875 19.320312 22.710938 C 19.378906 22.707031 19.460938 22.710938 19.40625 22.660156 C 18.882812 22.265625 18.273438 22.066406 17.753906 22.214844 Z M 17.753906 22.214844 " fill-opacity="1" fill-rule="nonzero"/><path fill="#ffffff" d="M 18.667969 22.570312 C 18.660156 22.597656 18.621094 22.675781 18.609375 22.695312 C 18.742188 22.804688 18.914062 22.898438 18.945312 23.019531 C 18.992188 22.984375 19.035156 22.96875 19.078125 22.964844 C 19.0625 22.828125 18.804688 22.679688 18.667969 22.570312 Z M 18.667969 22.570312 " fill-opacity="1" fill-rule="nonzero"/><path fill="#1b5e20" d="M 18.609375 22.695312 C 18.59375 22.726562 18.507812 22.761719 18.476562 22.789062 C 18.59375 22.902344 18.757812 23.019531 18.84375 23.128906 C 18.875 23.078125 18.910156 23.042969 18.945312 23.015625 C 18.910156 22.898438 18.742188 22.804688 18.609375 22.695312 Z M 18.609375 22.695312 " fill-opacity="1" fill-rule="nonzero"/><path fill="#1b5e20" d="M 18.367188 22.058594 C 18.214844 22.070312 18.238281 22.136719 18.238281 22.371094 C 18.246094 22.53125 17.792969 22.632812 17.738281 22.992188 C 17.792969 22.972656 17.859375 22.953125 17.929688 22.964844 C 17.976562 22.820312 18.417969 22.628906 18.417969 22.347656 L 18.414062 22.289062 C 18.421875 22.179688 18.421875 22.058594 18.367188 22.058594 Z M 18.367188 22.058594 " fill-opacity="1" fill-rule="nonzero"/><path fill="#ffffff" d="M 18.585938 22.058594 C 18.5625 22.058594 18.53125 22.058594 18.5 22.058594 C 18.449219 22.058594 18.40625 22.058594 18.367188 22.058594 C 18.421875 22.058594 18.417969 22.179688 18.417969 22.289062 C 18.417969 22.328125 18.421875 22.375 18.421875 22.421875 C 18.417969 22.417969 18.414062 22.414062 18.410156 22.414062 C 18.367188 22.585938 17.957031 22.738281 17.929688 22.964844 C 17.976562 22.96875 18.019531 22.984375 18.0625 23.023438 C 18.113281 22.84375 18.441406 22.726562 18.546875 22.542969 C 18.558594 22.542969 18.566406 22.542969 18.578125 22.542969 C 18.648438 22.558594 18.632812 22.394531 18.632812 22.289062 C 18.632812 22.179688 18.640625 22.054688 18.585938 22.058594 Z M 18.585938 22.058594 " fill-opacity="1" fill-rule="nonzero"/><path fill="#dd2c00" d="M 18.757812 22.492188 C 18.757812 22.488281 18.757812 22.480469 18.757812 22.480469 C 18.796875 22.441406 18.8125 22.382812 18.8125 22.289062 C 18.8125 22.285156 18.8125 22.28125 18.8125 22.273438 L 18.8125 22.269531 C 18.808594 22.09375 18.769531 22.0625 18.585938 22.058594 C 18.636719 22.054688 18.632812 22.164062 18.632812 22.265625 C 18.632812 22.269531 18.640625 22.402344 18.546875 22.542969 C 18.429688 22.71875 18.117188 22.84375 18.066406 23.015625 C 18.101562 23.042969 18.132812 23.078125 18.167969 23.128906 C 18.261719 23 18.550781 22.839844 18.703125 22.605469 C 18.84375 22.695312 19.066406 22.84375 19.082031 22.960938 C 19.148438 22.953125 19.214844 22.972656 19.269531 22.988281 C 19.199219 22.703125 18.890625 22.574219 18.757812 22.492188 Z M 18.757812 22.492188 " fill-opacity="1" fill-rule="nonzero"/><path fill="#ef5350" d="M 14.710938 17.886719 C 14.5625 18.035156 14.644531 18.175781 14.714844 18.253906 C 14.792969 18.328125 14.964844 18.429688 15.054688 18.335938 C 15.136719 18.253906 15.152344 18.132812 15.0625 17.984375 C 14.972656 17.835938 14.828125 17.765625 14.710938 17.886719 Z M 14.710938 17.886719 " fill-opacity="1" fill-rule="nonzero"/><path fill="#fbc02d" d="M 14.507812 17.433594 L 14.632812 17.667969 L 14.691406 17.636719 L 14.5625 17.402344 Z M 14.507812 17.433594 " fill-opacity="1" fill-rule="nonzero"/><path fill="#fbc02d" d="M 14.511719 17.261719 C 14.394531 17.261719 14.394531 17.453125 14.511719 17.453125 C 14.621094 17.453125 14.628906 17.261719 14.511719 17.261719 Z M 14.511719 17.261719 " fill-opacity="1" fill-rule="nonzero"/><path fill="#e53935" d="M 14.902344 17.558594 C 14.828125 17.550781 14.804688 17.59375 14.800781 17.679688 C 14.761719 17.613281 14.714844 17.59375 14.65625 17.628906 C 14.605469 17.660156 14.597656 17.703125 14.613281 17.761719 C 14.574219 17.738281 14.535156 17.730469 14.492188 17.773438 C 14.457031 17.8125 14.460938 17.851562 14.484375 17.894531 C 14.464844 17.898438 14.453125 17.90625 14.445312 17.933594 C 14.417969 17.992188 14.433594 18.027344 14.519531 18.054688 C 14.609375 18.078125 14.644531 18.058594 14.65625 18.023438 C 14.65625 18.015625 14.652344 18.011719 14.652344 18.007812 C 14.671875 18.003906 14.691406 18.003906 14.703125 17.988281 C 14.71875 17.972656 14.722656 17.945312 14.71875 17.917969 C 14.753906 17.941406 14.785156 17.949219 14.8125 17.933594 C 14.832031 17.917969 14.847656 17.894531 14.851562 17.859375 C 14.859375 17.863281 14.867188 17.878906 14.882812 17.878906 C 14.945312 17.882812 14.96875 17.832031 14.988281 17.710938 C 15.003906 17.621094 14.984375 17.566406 14.902344 17.558594 Z M 14.902344 17.558594 " fill-opacity="1" fill-rule="nonzero"/><path fill="#00897b" d="M 15.371094 18.289062 C 15.082031 18.15625 14.765625 18.371094 14.796875 18.726562 C 14.828125 19.085938 15.265625 19.386719 15.808594 19.40625 L 16.027344 19.117188 C 15.742188 19.074219 15.867188 18.523438 15.371094 18.289062 Z M 15.371094 18.289062 " fill-opacity="1" fill-rule="nonzero"/><path fill="#00695c" d="M 15.839844 18.8125 C 15.769531 18.621094 15.679688 18.386719 15.386719 18.25 C 15.238281 18.183594 15.070312 18.191406 14.945312 18.28125 C 14.808594 18.378906 14.734375 18.546875 14.753906 18.730469 C 14.785156 19.113281 15.246094 19.433594 15.804688 19.453125 L 15.824219 19.453125 L 16.113281 19.085938 L 16.035156 19.070312 C 15.9375 19.054688 15.902344 18.96875 15.839844 18.8125 Z M 15.78125 19.359375 C 15.285156 19.332031 14.871094 19.054688 14.84375 18.722656 C 14.828125 18.566406 14.886719 18.433594 14.996094 18.359375 C 15.050781 18.316406 15.121094 18.296875 15.1875 18.296875 C 15.242188 18.296875 15.296875 18.308594 15.347656 18.332031 C 15.609375 18.457031 15.683594 18.660156 15.753906 18.847656 C 15.804688 18.972656 15.847656 19.09375 15.953125 19.140625 Z M 15.78125 19.359375 " fill-opacity="1" fill-rule="nonzero"/><path fill="#00897b" d="M 16.015625 19.015625 C 15.644531 19.261719 15.765625 19.550781 15.867188 19.679688 C 16.015625 19.855469 16.683594 19.96875 17.152344 19.8125 L 17.207031 19.507812 C 16.949219 19.25 16.390625 18.769531 16.015625 19.015625 Z M 16.015625 19.015625 " fill-opacity="1" fill-rule="nonzero"/><path fill="#00695c" d="M 15.992188 18.980469 C 15.832031 19.085938 15.742188 19.207031 15.71875 19.347656 C 15.695312 19.523438 15.800781 19.667969 15.832031 19.707031 C 15.941406 19.839844 16.285156 19.933594 16.644531 19.933594 C 16.824219 19.933594 17.007812 19.910156 17.167969 19.855469 L 17.191406 19.84375 L 17.253906 19.496094 L 17.234375 19.476562 C 17 19.238281 16.402344 18.707031 15.992188 18.980469 Z M 17.113281 19.773438 C 16.65625 19.914062 16.03125 19.800781 15.902344 19.644531 C 15.875 19.613281 15.792969 19.5 15.8125 19.359375 C 15.828125 19.246094 15.90625 19.144531 16.042969 19.054688 C 16.101562 19.011719 16.175781 18.996094 16.246094 18.996094 C 16.585938 18.996094 16.996094 19.367188 17.15625 19.523438 Z M 17.113281 19.773438 " fill-opacity="1" fill-rule="nonzero"/><path fill="#00897b" d="M 17.34375 19.304688 C 16.929688 19.5625 17.078125 19.941406 17.320312 20.121094 C 17.566406 20.300781 18.320312 20.222656 18.648438 20.132812 C 18.976562 20.042969 19.0625 19.878906 19.011719 19.652344 C 18.265625 19.339844 17.753906 19.054688 17.34375 19.304688 Z M 17.34375 19.304688 " fill-opacity="1" fill-rule="nonzero"/><path fill="#00695c" d="M 19.050781 19.621094 L 19.027344 19.609375 C 18.929688 19.570312 18.832031 19.527344 18.738281 19.484375 C 18.136719 19.222656 17.699219 19.035156 17.316406 19.265625 C 17.09375 19.40625 17.042969 19.574219 17.035156 19.683594 C 17.027344 19.859375 17.128906 20.039062 17.292969 20.160156 C 17.410156 20.246094 17.628906 20.273438 17.855469 20.273438 C 18.164062 20.273438 18.496094 20.222656 18.65625 20.175781 C 18.984375 20.089844 19.117188 19.914062 19.050781 19.640625 Z M 18.636719 20.089844 C 18.320312 20.175781 17.578125 20.253906 17.351562 20.085938 C 17.238281 20.003906 17.121094 19.859375 17.128906 19.6875 C 17.136719 19.558594 17.21875 19.4375 17.367188 19.34375 C 17.46875 19.285156 17.582031 19.253906 17.699219 19.253906 C 17.976562 19.253906 18.300781 19.394531 18.703125 19.574219 C 18.789062 19.609375 18.875 19.648438 18.96875 19.683594 C 19 19.828125 18.976562 19.996094 18.636719 20.089844 Z M 18.636719 20.089844 " fill-opacity="1" fill-rule="nonzero"/><path fill="#00897b" d="M 20.648438 19.773438 C 20.539062 19.917969 20.558594 20.050781 20.15625 20.03125 C 20.109375 20.113281 20.03125 20.195312 19.867188 20.257812 C 19.9375 20.269531 20.128906 20.339844 20.457031 20.441406 C 20.785156 20.550781 21.003906 20.5 21.320312 20.316406 C 21.640625 20.132812 21.589844 19.828125 21.320312 19.609375 C 21.078125 19.402344 20.765625 19.609375 20.648438 19.773438 Z M 20.648438 19.773438 " fill-opacity="1" fill-rule="nonzero"/><path fill="#00695c" d="M 21.035156 19.480469 C 20.859375 19.5 20.691406 19.628906 20.609375 19.742188 C 20.589844 19.773438 20.574219 19.800781 20.554688 19.828125 C 20.496094 19.933594 20.460938 19.996094 20.152344 19.988281 L 20.125 19.984375 L 20.109375 20.015625 C 20.066406 20.097656 19.984375 20.164062 19.851562 20.21875 L 19.695312 20.28125 L 19.863281 20.304688 C 19.910156 20.3125 20.03125 20.355469 20.210938 20.414062 L 20.441406 20.492188 C 20.5625 20.527344 20.671875 20.546875 20.769531 20.546875 C 20.96875 20.546875 21.140625 20.476562 21.34375 20.355469 C 21.527344 20.253906 21.578125 20.117188 21.585938 20.027344 C 21.601562 19.878906 21.515625 19.710938 21.351562 19.574219 C 21.261719 19.496094 21.144531 19.464844 21.035156 19.480469 Z M 21.296875 20.277344 C 20.972656 20.46875 20.769531 20.496094 20.472656 20.402344 L 20.242188 20.328125 C 20.144531 20.296875 20.0625 20.265625 20 20.25 C 20.082031 20.203125 20.140625 20.148438 20.179688 20.078125 C 20.195312 20.078125 20.203125 20.078125 20.21875 20.078125 C 20.496094 20.078125 20.5625 20 20.636719 19.871094 C 20.648438 19.847656 20.664062 19.820312 20.6875 19.796875 C 20.753906 19.703125 20.894531 19.589844 21.046875 19.570312 C 21.140625 19.558594 21.21875 19.582031 21.292969 19.640625 C 21.429688 19.761719 21.503906 19.898438 21.496094 20.015625 C 21.484375 20.117188 21.414062 20.210938 21.296875 20.277344 Z M 21.296875 20.277344 " fill-opacity="1" fill-rule="nonzero"/><path fill="#00897b" d="M 19.054688 19.621094 C 18.566406 19.742188 18.53125 20.300781 18.511719 20.945312 C 18.511719 20.992188 18.605469 20.992188 18.796875 20.992188 C 18.988281 20.992188 19.089844 21.003906 19.085938 20.925781 C 19.113281 20.113281 20.273438 20.601562 20.1875 19.808594 C 20.148438 19.453125 19.539062 19.496094 19.054688 19.621094 Z M 19.054688 19.621094 " fill-opacity="1" fill-rule="nonzero"/><path fill="#00695c" d="M 19.039062 19.574219 C 18.503906 19.710938 18.480469 20.339844 18.464844 20.945312 C 18.464844 21.035156 18.566406 21.035156 18.796875 21.035156 L 18.855469 21.039062 C 18.875 21.039062 18.894531 21.039062 18.90625 21.039062 C 19.003906 21.039062 19.070312 21.03125 19.101562 20.996094 C 19.117188 20.980469 19.132812 20.960938 19.128906 20.925781 C 19.140625 20.554688 19.410156 20.484375 19.6875 20.402344 C 19.960938 20.328125 20.28125 20.242188 20.230469 19.804688 C 20.222656 19.710938 20.175781 19.636719 20.097656 19.582031 C 19.839844 19.402344 19.273438 19.519531 19.039062 19.574219 Z M 19.664062 20.316406 C 19.378906 20.394531 19.054688 20.484375 19.039062 20.925781 L 19.039062 20.933594 C 19.019531 20.945312 18.941406 20.945312 18.859375 20.945312 L 18.796875 20.945312 C 18.691406 20.945312 18.589844 20.945312 18.558594 20.933594 C 18.578125 20.238281 18.628906 19.773438 19.0625 19.667969 C 19.519531 19.550781 19.847656 19.484375 20.050781 19.660156 C 20.101562 19.703125 20.132812 19.75 20.140625 19.816406 C 20.179688 20.171875 19.953125 20.234375 19.664062 20.316406 Z M 19.664062 20.316406 " fill-opacity="1" fill-rule="nonzero"/><path fill="#ef5350" d="M 21.445312 19.550781 C 21.296875 19.648438 21.257812 19.765625 21.300781 19.855469 C 21.34375 19.941406 21.523438 19.917969 21.640625 19.847656 C 21.757812 19.773438 21.828125 19.632812 21.773438 19.539062 C 21.71875 19.453125 21.566406 19.476562 21.445312 19.550781 Z M 21.445312 19.550781 " fill-opacity="1" fill-rule="nonzero"/><path fill="#fbc02d" d="M 21.90625 19.378906 L 21.953125 19.425781 L 22.136719 19.230469 L 22.089844 19.183594 Z M 21.90625 19.378906 " fill-opacity="1" fill-rule="nonzero"/><path fill="#fbc02d" d="M 22.070312 19.195312 C 22.101562 19.304688 22.28125 19.261719 22.246094 19.140625 C 22.214844 19.023438 22.039062 19.074219 22.070312 19.195312 Z M 22.070312 19.195312 " fill-opacity="1" fill-rule="nonzero"/><path fill="#e53935" d="M 21.921875 19.539062 C 21.988281 19.5 22.011719 19.445312 21.972656 19.386719 C 21.933594 19.328125 21.890625 19.332031 21.835938 19.363281 C 21.855469 19.316406 21.855469 19.269531 21.8125 19.242188 C 21.734375 19.191406 21.699219 19.226562 21.636719 19.332031 C 21.574219 19.4375 21.597656 19.492188 21.640625 19.519531 C 21.664062 19.535156 21.683594 19.527344 21.707031 19.519531 C 21.707031 19.539062 21.703125 19.558594 21.710938 19.574219 C 21.726562 19.59375 21.746094 19.59375 21.761719 19.59375 C 21.75 19.617188 21.742188 19.640625 21.746094 19.664062 C 21.757812 19.730469 21.808594 19.742188 21.921875 19.738281 C 22.007812 19.730469 22.070312 19.703125 22.058594 19.621094 C 22.042969 19.542969 22 19.53125 21.921875 19.539062 Z M 21.921875 19.539062 " fill-opacity="1" fill-rule="nonzero"/><path fill="#ef5350" d="M 16.570312 18.867188 C 16.410156 18.980469 16.367188 19.199219 16.453125 19.34375 C 16.542969 19.484375 16.6875 19.441406 16.773438 19.34375 C 16.855469 19.242188 16.839844 19.003906 16.792969 18.917969 Z M 16.570312 18.867188 " fill-opacity="1" fill-rule="nonzero"/><path fill="#fbc02d" d="M 16.679688 18.769531 L 16.738281 18.792969 L 16.808594 18.523438 L 16.746094 18.507812 Z M 16.679688 18.769531 " fill-opacity="1" fill-rule="nonzero"/><path fill="#fbc02d" d="M 16.785156 18.386719 C 16.671875 18.386719 16.671875 18.578125 16.785156 18.578125 C 16.898438 18.578125 16.90625 18.386719 16.785156 18.386719 Z M 16.785156 18.386719 " fill-opacity="1" fill-rule="nonzero"/><path fill="#e53935" d="M 16.816406 18.648438 C 16.757812 18.648438 16.730469 18.695312 16.726562 18.742188 C 16.722656 18.742188 16.714844 18.742188 16.710938 18.742188 C 16.730469 18.683594 16.710938 18.605469 16.628906 18.605469 C 16.542969 18.605469 16.523438 18.707031 16.558594 18.765625 C 16.53125 18.746094 16.507812 18.71875 16.5 18.675781 C 16.398438 18.78125 16.492188 18.949219 16.628906 18.914062 C 16.640625 18.933594 16.644531 18.957031 16.671875 18.964844 C 16.707031 18.972656 16.734375 18.964844 16.765625 18.941406 C 16.832031 19.003906 16.976562 18.949219 16.976562 18.796875 C 16.957031 18.808594 16.917969 18.820312 16.871094 18.824219 C 16.929688 18.769531 16.917969 18.648438 16.816406 18.648438 Z M 16.816406 18.648438 " fill-opacity="1" fill-rule="nonzero"/><path fill="#ad6119" d="M 20.164062 13.304688 C 19.78125 13.082031 19.339844 12.992188 18.910156 12.960938 C 18.570312 12.929688 18.410156 12.996094 18.363281 13.117188 C 18.101562 13.125 18.023438 13.238281 17.953125 13.382812 C 17.820312 13.660156 18.082031 13.691406 18.304688 13.722656 C 18.527344 13.75 18.773438 14.007812 18.691406 14.363281 C 18.59375 14.199219 18.480469 14.035156 18.285156 13.976562 C 18.324219 13.957031 18.359375 13.929688 18.378906 13.910156 C 18.433594 13.863281 18.449219 13.824219 18.285156 13.863281 C 18.121094 13.898438 17.804688 13.640625 17.585938 13.773438 C 17.589844 13.722656 17.589844 13.675781 17.585938 13.644531 C 17.5625 13.441406 17.527344 13.542969 17.480469 13.65625 C 17.457031 13.71875 17.414062 13.769531 17.355469 13.808594 C 17.355469 13.714844 17.34375 13.625 17.332031 13.554688 C 17.3125 13.433594 17.269531 13.503906 17.265625 13.644531 C 17.261719 13.710938 17.246094 13.796875 17.222656 13.886719 C 17.175781 13.914062 17.136719 13.933594 17.089844 13.957031 C 17.097656 13.894531 17.097656 13.84375 17.074219 13.699219 C 17.050781 13.554688 16.988281 13.640625 16.992188 13.722656 C 16.996094 13.804688 16.96875 14.023438 16.890625 14.132812 C 16.910156 14.070312 16.90625 13.980469 16.878906 13.882812 C 16.84375 13.753906 16.808594 13.761719 16.816406 13.890625 C 16.820312 14.011719 16.679688 14.179688 16.550781 14.273438 C 16.378906 14.402344 16.351562 14.480469 16.425781 14.570312 C 16.640625 14.8125 17.277344 14.730469 17.375 14.753906 C 17.417969 14.765625 17.460938 14.785156 17.460938 14.855469 C 17.460938 14.894531 17.472656 14.90625 17.511719 14.882812 C 17.492188 14.976562 17.457031 15.082031 17.402344 15.152344 C 17.355469 15.214844 17.371094 15.222656 17.4375 15.222656 C 17.390625 15.382812 17.226562 15.523438 17.207031 15.628906 C 17.195312 15.683594 17.207031 15.71875 17.253906 15.730469 C 17.195312 15.941406 17.050781 16.039062 17.0625 16.253906 C 17.074219 16.464844 17.234375 16.734375 17.210938 16.859375 C 17.191406 16.972656 17.277344 16.957031 17.34375 16.914062 C 17.382812 16.953125 17.421875 16.996094 17.457031 17.039062 C 17.414062 17.148438 17.605469 17.488281 17.761719 17.679688 C 17.648438 17.621094 17.523438 17.574219 17.488281 17.613281 C 17.460938 17.644531 17.53125 17.796875 17.691406 17.933594 C 17.511719 18.058594 17.195312 18.246094 17.203125 18.339844 C 17.207031 18.4375 17.425781 18.488281 17.667969 18.519531 C 17.597656 18.628906 17.605469 18.714844 17.796875 18.695312 C 17.976562 18.679688 18.167969 18.589844 18.269531 18.539062 C 18.363281 18.660156 18.460938 18.691406 18.5 18.300781 C 18.539062 18.359375 18.570312 18.40625 18.597656 18.445312 C 18.714844 18.628906 18.78125 18.71875 18.828125 18.664062 C 18.945312 18.84375 19.011719 18.933594 19.058594 19.035156 C 19.109375 19.136719 19.210938 19.222656 19.257812 18.917969 C 19.292969 18.984375 19.324219 19.039062 19.351562 19.085938 C 19.421875 19.207031 19.527344 19.191406 19.574219 18.9375 C 19.632812 19.042969 19.703125 19.105469 19.714844 18.789062 C 19.757812 18.898438 19.851562 19.0625 19.835938 18.769531 C 20.066406 19.003906 20.109375 19.035156 20.191406 19.117188 C 20.269531 19.191406 20.386719 19.210938 20.472656 19.125 C 20.625 19.265625 20.800781 19.226562 20.871094 19.117188 C 21.023438 19.238281 21.269531 19.136719 21.3125 19.003906 C 21.367188 19.042969 21.429688 19.042969 21.574219 19.035156 C 21.769531 19.027344 21.976562 18.945312 21.71875 18.757812 C 21.164062 18.355469 20.261719 17.742188 19.894531 17.453125 C 19.878906 17.183594 19.855469 16.84375 19.765625 16.550781 C 19.90625 16.738281 20.015625 16.777344 20.121094 16.804688 C 20.226562 16.832031 20.257812 16.765625 20.429688 17.0625 C 20.507812 17.199219 20.539062 17.25 20.625 17.328125 C 20.710938 17.40625 20.734375 17.371094 20.644531 17.175781 C 20.558594 16.980469 20.382812 16.726562 20.222656 16.535156 C 20.382812 16.707031 20.386719 16.703125 20.53125 16.761719 C 20.671875 16.824219 20.800781 16.980469 20.855469 17.15625 C 20.90625 17.328125 21.007812 17.511719 21.039062 17.578125 C 21.070312 17.644531 21.117188 17.613281 21.082031 17.445312 C 21.042969 17.257812 20.949219 16.96875 20.859375 16.789062 C 20.984375 16.925781 21.148438 17.046875 21.167969 17.285156 C 21.1875 17.527344 21.25 17.714844 21.304688 17.816406 C 21.363281 17.917969 21.386719 17.839844 21.378906 17.683594 C 21.375 17.527344 21.335938 17.199219 21.269531 16.925781 C 21.371094 17.089844 21.4375 17.234375 21.445312 17.332031 C 21.492188 17.683594 21.640625 17.894531 21.640625 18.285156 C 21.640625 18.421875 21.726562 18.625 21.75 18.367188 C 21.785156 18 21.660156 17.304688 21.65625 16.941406 C 21.703125 17.039062 21.742188 17.144531 21.761719 17.273438 C 21.800781 17.621094 21.921875 17.832031 21.933594 18.214844 C 21.949219 18.59375 22.023438 18.808594 22.0625 18.558594 C 22.199219 17.691406 21.976562 17.332031 22.023438 16.726562 C 22.101562 16.832031 22.167969 16.953125 22.167969 17.085938 C 22.164062 18.050781 22.261719 18.195312 22.261719 18.65625 C 22.261719 18.820312 22.28125 19.066406 22.386719 18.707031 C 22.5 18.316406 22.5 17.746094 22.5 17.40625 C 22.496094 14.601562 20.546875 13.527344 20.164062 13.304688 Z M 20.164062 13.304688 " fill-opacity="1" fill-rule="nonzero"/><path fill="#c47529" d="M 20.164062 13.304688 C 19.78125 13.082031 19.339844 12.992188 18.910156 12.960938 C 18.570312 12.929688 18.410156 12.996094 18.363281 13.117188 C 18.101562 13.125 18.023438 13.238281 17.953125 13.382812 C 17.820312 13.660156 18.082031 13.691406 18.304688 13.722656 C 18.402344 13.734375 18.507812 13.742188 18.867188 13.71875 C 19.175781 13.695312 19.402344 13.671875 19.679688 13.746094 C 20.277344 13.914062 20.828125 14.425781 21.195312 14.890625 C 21.625 15.429688 22.023438 16.730469 22.023438 16.730469 C 22.101562 16.839844 22.167969 16.960938 22.167969 17.089844 C 22.160156 18.054688 22.257812 18.203125 22.257812 18.65625 C 22.257812 18.828125 22.28125 19.070312 22.386719 18.707031 C 22.5 18.316406 22.5 17.746094 22.5 17.40625 C 22.496094 14.601562 20.546875 13.527344 20.164062 13.304688 Z M 20.164062 13.304688 " fill-opacity="1" fill-rule="nonzero"/><path fill="#9e5817" d="M 17.753906 17.683594 C 17.648438 17.621094 17.523438 17.578125 17.488281 17.617188 C 17.457031 17.648438 17.53125 17.796875 17.691406 17.9375 C 17.507812 18.058594 17.195312 18.246094 17.199219 18.339844 C 17.207031 18.4375 17.417969 18.488281 17.664062 18.527344 C 17.59375 18.628906 17.601562 18.71875 17.796875 18.699219 C 17.976562 18.683594 18.167969 18.589844 18.265625 18.539062 C 18.355469 18.667969 18.460938 18.699219 18.496094 18.304688 C 18.519531 18.335938 18.460938 18.144531 18.265625 17.875 C 18.007812 17.621094 17.605469 17.5 17.753906 17.683594 Z M 17.753906 17.683594 " fill-opacity="1" fill-rule="nonzero"/><path fill="#c47529" d="M 19.105469 18.136719 C 18.734375 18.242188 18.792969 18.703125 18.820312 18.667969 C 18.945312 18.851562 19.007812 18.941406 19.054688 19.039062 C 19.101562 19.140625 19.203125 19.226562 19.25 18.925781 C 19.289062 18.992188 19.320312 19.046875 19.347656 19.089844 C 19.417969 19.207031 19.523438 19.195312 19.570312 18.941406 C 19.628906 19.050781 19.695312 19.105469 19.710938 18.796875 C 19.75 18.902344 19.847656 19.0625 19.828125 18.773438 C 20.0625 19.007812 19.933594 18.550781 19.683594 18.324219 C 19.644531 18.28125 19.527344 18.109375 19.105469 18.136719 Z M 19.105469 18.136719 " fill-opacity="1" fill-rule="nonzero"/><path fill="#ffffff" d="M 16.839844 14.210938 L 16.578125 14.5 C 16.570312 14.550781 16.667969 14.554688 16.742188 14.539062 C 16.820312 14.523438 16.910156 14.457031 16.921875 14.371094 C 16.929688 14.289062 16.90625 14.207031 16.839844 14.210938 Z M 16.839844 14.210938 " fill-opacity="1" fill-rule="nonzero"/><path fill="#fbc02d" d="M 16.753906 14.636719 C 16.621094 14.519531 16.460938 14.613281 16.390625 14.515625 C 16.324219 14.519531 16.257812 14.597656 16.300781 14.671875 C 16.070312 14.816406 16.054688 15.101562 16.164062 15.273438 C 16.253906 15.414062 16.488281 15.40625 16.550781 15.394531 C 16.433594 15.351562 16.378906 15.0625 16.433594 14.984375 C 16.492188 14.90625 16.617188 14.746094 16.914062 15.078125 C 17.011719 14.984375 17.105469 14.902344 17.195312 14.894531 C 17.3125 14.890625 17.429688 14.777344 17.355469 14.675781 C 17.277344 14.574219 16.871094 14.738281 16.753906 14.636719 Z M 16.753906 14.636719 " fill-opacity="1" fill-rule="nonzero"/><path fill="#fbc02d" d="M 20.191406 19.363281 C 19.933594 19.367188 19.738281 19.203125 19.574219 18.941406 C 19.539062 19.167969 19.410156 19.246094 19.324219 19.046875 C 19.359375 19.183594 19.125 19.292969 18.996094 19.242188 C 18.871094 19.191406 18.722656 19.246094 18.722656 19.417969 C 18.722656 19.527344 18.773438 19.625 18.886719 19.652344 C 18.863281 19.734375 18.964844 19.855469 19.089844 19.859375 C 19.210938 19.867188 19.3125 19.753906 19.3125 19.632812 C 19.476562 19.664062 19.714844 19.488281 19.890625 19.601562 C 19.9375 19.742188 20.082031 19.769531 20.246094 19.675781 C 20.410156 19.582031 20.339844 19.359375 20.191406 19.363281 Z M 20.191406 19.363281 " fill-opacity="1" fill-rule="nonzero"/><path fill="#212121" d="M 18.878906 19.636719 C 18.722656 19.671875 18.683594 19.910156 18.894531 20.003906 C 18.820312 19.871094 19.039062 19.839844 19.039062 19.773438 C 19.039062 19.707031 19.035156 19.601562 18.878906 19.636719 Z M 18.878906 19.636719 " fill-opacity="1" fill-rule="nonzero"/><path fill="#212121" d="M 18.671875 19.316406 C 18.515625 19.320312 18.394531 19.550781 18.558594 19.675781 C 18.519531 19.484375 18.707031 19.574219 18.765625 19.53125 C 18.816406 19.488281 18.832031 19.308594 18.671875 19.316406 Z M 18.671875 19.316406 " fill-opacity="1" fill-rule="nonzero"/><path fill="#212121" d="M 20.222656 19.566406 C 20.191406 19.601562 20.148438 19.703125 20.21875 19.75 C 20.289062 19.796875 20.296875 19.863281 20.234375 19.941406 C 20.460938 19.914062 20.480469 19.734375 20.425781 19.625 C 20.371094 19.523438 20.257812 19.527344 20.222656 19.566406 Z M 20.222656 19.566406 " fill-opacity="1" fill-rule="nonzero"/><path fill="#fbc02d" d="M 17.265625 17.628906 C 17.183594 17.507812 16.839844 17.617188 16.671875 17.597656 C 16.535156 17.566406 16.429688 17.644531 16.414062 17.75 C 16.335938 17.738281 16.269531 17.785156 16.242188 17.894531 C 16.195312 17.894531 16.144531 17.933594 16.144531 18.003906 C 16.144531 18.078125 16.199219 18.234375 16.28125 18.316406 C 16.371094 18.398438 16.402344 18.347656 16.445312 18.265625 C 16.484375 18.28125 16.53125 18.273438 16.589844 18.214844 C 16.617188 18.214844 16.660156 18.199219 16.707031 18.164062 C 16.808594 18.226562 16.894531 18.265625 16.929688 18.316406 C 16.964844 18.367188 17.019531 18.355469 17.128906 18.246094 C 17.304688 18.265625 17.625 18.324219 17.804688 18.367188 C 17.886719 18.296875 18.003906 18.253906 18.074219 18.234375 C 17.789062 18.148438 17.476562 18.058594 17.375 18.015625 C 17.496094 17.894531 17.328125 17.714844 17.265625 17.628906 Z M 17.265625 17.628906 " fill-opacity="1" fill-rule="nonzero"/><path fill="#212121" d="M 16.589844 18.203125 C 16.570312 18.230469 16.523438 18.273438 16.449219 18.265625 C 16.429688 18.296875 16.398438 18.339844 16.359375 18.355469 C 16.378906 18.402344 16.5 18.394531 16.566406 18.339844 C 16.703125 18.378906 16.785156 18.320312 16.785156 18.316406 C 16.820312 18.316406 16.855469 18.304688 16.894531 18.28125 C 16.835938 18.230469 16.753906 18.1875 16.707031 18.164062 C 16.675781 18.1875 16.632812 18.199219 16.589844 18.203125 Z M 16.589844 18.203125 " fill-opacity="1" fill-rule="nonzero"/><path fill="#212121" d="M 16.570312 17.886719 C 16.574219 17.96875 16.644531 17.980469 16.71875 17.960938 C 16.765625 17.945312 16.777344 17.90625 16.777344 17.804688 C 16.773438 17.671875 16.820312 17.625 16.855469 17.53125 C 16.617188 17.511719 16.558594 17.714844 16.570312 17.886719 Z M 16.570312 17.886719 " fill-opacity="1" fill-rule="nonzero"/><path fill="#558b2f" d="M 15.789062 14.679688 C 15.871094 14.660156 15.859375 14.722656 16.066406 14.605469 C 16.144531 14.5625 16.234375 14.417969 16.210938 14.363281 C 16.117188 14.46875 15.910156 14.585938 15.835938 14.519531 C 15.765625 14.453125 15.820312 14.359375 15.90625 14.269531 C 15.992188 14.179688 16.046875 14.019531 16.0625 13.945312 C 16.113281 13.773438 16.035156 13.824219 15.957031 13.902344 C 15.875 13.972656 15.722656 14.085938 15.574219 14.179688 C 15.417969 14.273438 15.398438 14.386719 15.460938 14.546875 C 15.503906 14.660156 15.519531 14.773438 15.523438 14.875 C 15.527344 14.980469 15.660156 15.257812 16.101562 15.082031 C 16.109375 15.082031 16.097656 15.039062 16.105469 14.972656 C 16.132812 14.8125 16.238281 14.734375 16.222656 14.734375 C 16.050781 14.734375 15.808594 14.785156 15.789062 14.679688 Z M 15.789062 14.679688 " fill-opacity="1" fill-rule="nonzero"/><path fill="#558b2f" d="M 16.59375 14.878906 C 16.4375 14.90625 16.394531 15.019531 16.414062 15.132812 C 16.558594 15.238281 16.621094 15.441406 16.46875 15.566406 C 15.976562 15.945312 15.519531 16.328125 15.730469 17.011719 C 15.890625 17.527344 16.3125 17.433594 16.457031 17.4375 L 16.199219 16.984375 C 15.972656 16.648438 16.042969 16.410156 16.597656 15.96875 C 17.140625 15.546875 17.023438 15.292969 16.914062 15.078125 C 16.871094 15.027344 16.710938 14.851562 16.59375 14.878906 Z M 16.59375 14.878906 " fill-opacity="1" fill-rule="nonzero"/><path fill="#558b2f" d="M 16.148438 18.003906 C 16.101562 18.003906 16.066406 18.027344 16.039062 18.007812 C 15.828125 17.878906 15.925781 17.425781 15.625 17.304688 C 15.324219 17.179688 15.359375 17.027344 15.453125 16.820312 C 15.550781 16.617188 15.519531 16.019531 15.003906 16.007812 C 14.488281 15.996094 14.855469 16.203125 15.019531 16.289062 C 15.1875 16.375 15.292969 16.472656 15.207031 16.726562 C 15.121094 16.976562 14.988281 17.28125 15.316406 17.527344 C 15.53125 17.691406 15.601562 17.742188 15.652344 18.023438 C 15.722656 18.441406 16.019531 18.609375 16.363281 18.355469 C 16.253906 18.335938 16.167969 18.152344 16.148438 18.003906 Z M 16.148438 18.003906 " fill-opacity="1" fill-rule="nonzero"/><path fill="#fbc02d" d="M 14.605469 15.957031 C 14.519531 15.980469 14.503906 16.011719 14.578125 16.078125 C 14.628906 16.125 14.585938 16.226562 14.699219 16.253906 C 14.796875 16.285156 14.824219 16.175781 14.800781 16.136719 C 14.785156 16.101562 14.800781 16.042969 14.828125 16.019531 C 14.863281 15.988281 14.890625 15.886719 14.796875 15.859375 C 14.679688 15.828125 14.675781 15.933594 14.605469 15.957031 Z M 14.605469 15.957031 " fill-opacity="1" fill-rule="nonzero"/><path fill="#fbc02d" d="M 14.738281 15.988281 C 14.652344 16.015625 14.632812 16.046875 14.710938 16.113281 C 14.761719 16.160156 14.714844 16.257812 14.828125 16.292969 C 14.929688 16.320312 14.957031 16.210938 14.929688 16.167969 C 14.914062 16.140625 14.929688 16.078125 14.957031 16.050781 C 14.992188 16.023438 15.023438 15.921875 14.925781 15.898438 C 14.8125 15.863281 14.804688 15.96875 14.738281 15.988281 Z M 14.738281 15.988281 " fill-opacity="1" fill-rule="nonzero"/><path fill="#fbc02d" d="M 14.871094 16.023438 C 14.785156 16.050781 14.761719 16.082031 14.839844 16.152344 C 14.894531 16.199219 14.847656 16.292969 14.960938 16.328125 C 15.058594 16.355469 15.085938 16.246094 15.0625 16.203125 C 15.042969 16.175781 15.058594 16.113281 15.089844 16.089844 C 15.128906 16.058594 15.15625 15.957031 15.058594 15.933594 C 14.941406 15.902344 14.9375 16.007812 14.871094 16.023438 Z M 14.871094 16.023438 " fill-opacity="1" fill-rule="nonzero"/><path fill="#827717" d="M 16.59375 14.867188 C 16.519531 14.871094 16.445312 14.945312 16.421875 15.015625 C 16.785156 15.070312 17.003906 15.644531 16.664062 15.917969 C 17.132812 15.523438 17.082031 15.25 16.914062 15.078125 C 16.871094 15.027344 16.714844 14.859375 16.59375 14.867188 Z M 16.59375 14.867188 " fill-opacity="1" fill-rule="nonzero"/><path fill="#827717" d="M 16.21875 16.945312 C 16.097656 16.832031 16.046875 16.613281 16.144531 16.4375 C 15.917969 16.730469 15.878906 17.410156 16.4375 17.4375 C 16.683594 17.449219 16.871094 17.464844 16.855469 17.53125 C 16.847656 17.558594 16.757812 17.65625 16.773438 17.839844 C 16.820312 17.839844 16.871094 17.84375 16.890625 17.875 C 16.925781 17.921875 16.910156 17.984375 16.925781 18.015625 C 17.09375 17.941406 17.382812 17.765625 17.214844 17.332031 C 17.003906 16.785156 16.425781 17.136719 16.21875 16.945312 Z M 16.21875 16.945312 " fill-opacity="1" fill-rule="nonzero"/><path fill="#827717" d="M 16.941406 14.800781 C 16.851562 14.84375 16.75 14.925781 16.75 14.925781 L 16.839844 15 C 16.839844 15 16.972656 14.894531 17.042969 14.875 C 17.121094 14.855469 17.121094 14.789062 17.097656 14.777344 C 17.074219 14.769531 17.011719 14.773438 16.941406 14.800781 Z M 16.941406 14.800781 " fill-opacity="1" fill-rule="nonzero"/><path fill="#ef6c00" d="M 16.679688 14.359375 C 16.636719 14.394531 16.585938 14.488281 16.585938 14.488281 C 16.585938 14.488281 16.65625 14.511719 16.71875 14.5 C 16.78125 14.488281 16.824219 14.46875 16.859375 14.402344 C 16.902344 14.3125 16.820312 14.230469 16.820312 14.230469 C 16.820312 14.230469 16.71875 14.320312 16.679688 14.359375 Z M 16.679688 14.359375 " fill-opacity="1" fill-rule="nonzero"/><path fill="#212121" d="M 16.636719 14.390625 C 16.632812 14.429688 16.753906 14.429688 16.773438 14.371094 C 16.800781 14.300781 16.757812 14.28125 16.757812 14.28125 Z M 16.636719 14.390625 " fill-opacity="1" fill-rule="nonzero"/><path fill="#ffffff" d="M 16.710938 14.375 C 16.710938 14.386719 16.703125 14.394531 16.695312 14.394531 C 16.683594 14.394531 16.675781 14.386719 16.675781 14.375 C 16.675781 14.363281 16.683594 14.359375 16.695312 14.359375 C 16.703125 14.359375 16.710938 14.363281 16.710938 14.375 Z M 16.710938 14.375 " fill-opacity="1" fill-rule="nonzero"/><path fill="#827717" d="M 16.128906 14.070312 C 16.019531 14.027344 16.03125 14.03125 16.03125 14.03125 L 16 14.117188 C 16.058594 14.105469 16.292969 14.203125 16.292969 14.203125 C 16.292969 14.203125 16.238281 14.113281 16.128906 14.070312 Z M 16.128906 14.070312 " fill-opacity="1" fill-rule="nonzero"/><path fill="#212121" d="M 15.765625 14.164062 C 15.765625 14.179688 15.777344 14.1875 15.792969 14.1875 C 15.804688 14.1875 15.816406 14.175781 15.816406 14.164062 C 15.816406 14.148438 15.804688 14.136719 15.792969 14.136719 C 15.777344 14.136719 15.765625 14.148438 15.765625 14.164062 Z M 15.765625 14.164062 " fill-opacity="1" fill-rule="nonzero"/></svg>