<svg xmlns="http://www.w3.org/2000/svg" xmlns:xlink="http://www.w3.org/1999/xlink" width="50" zoomAndPan="magnify" viewBox="0 0 37.5 37.499999" height="50" preserveAspectRatio="xMidYMid meet" version="1.0"><defs><clipPath id="8508c25836"><path d="M 0 0 L 37.007812 0 L 37.007812 37.007812 L 0 37.007812 Z M 0 0 " clip-rule="nonzero"/></clipPath><clipPath id="297c566d15"><path d="M 11 0 L 26 0 L 26 37.007812 L 11 37.007812 Z M 11 0 " clip-rule="nonzero"/></clipPath></defs><g clip-path="url(#8508c25836)"><path fill="#ffffff" d="M 0 0 L 37.007812 0 L 37.007812 37.007812 L 0 37.007812 Z M 0 0 " fill-opacity="1" fill-rule="nonzero"/><path fill="#ffffff" d="M 0 0 L 37.007812 0 L 37.007812 37.007812 L 0 37.007812 Z M 0 0 " fill-opacity="1" fill-rule="nonzero"/><path fill="#e92b2b" d="M 18.503906 37.007812 C 28.722656 37.007812 37.007812 28.722656 37.007812 18.503906 C 37.007812 8.285156 28.722656 0 18.503906 0 C 8.285156 0 0 8.285156 0 18.503906 C 0 28.722656 8.285156 37.007812 18.503906 37.007812 Z M 18.503906 37.007812 " fill-opacity="1" fill-rule="evenodd"/></g><g clip-path="url(#297c566d15)"><path fill="#fbfbfb" d="M 25.773438 35.523438 C 23.539062 36.476562 21.082031 37.007812 18.503906 37.007812 C 15.921875 37.007812 13.464844 36.476562 11.234375 35.523438 L 11.234375 1.484375 C 13.464844 0.527344 15.921875 0 18.503906 0 C 21.082031 0 23.539062 0.527344 25.773438 1.484375 Z M 25.773438 35.523438 " fill-opacity="1" fill-rule="evenodd"/></g><path fill="#2a2faf" d="M 11.234375 1.480469 C 4.628906 4.308594 0 10.863281 0 18.503906 C 0 26.140625 4.628906 32.699219 11.234375 35.523438 Z M 11.234375 1.480469 " fill-opacity="1" fill-rule="evenodd"/></svg>