<svg xmlns="http://www.w3.org/2000/svg" xmlns:xlink="http://www.w3.org/1999/xlink" width="50" zoomAndPan="magnify" viewBox="0 0 37.5 37.499999" height="50" preserveAspectRatio="xMidYMid meet" version="1.0"><defs><clipPath id="c5dbaaa1d3"><path d="M 0 0 L 37.007812 0 L 37.007812 37.007812 L 0 37.007812 Z M 0 0 " clip-rule="nonzero"/></clipPath><clipPath id="395400cf29"><path d="M 0 12 L 37.007812 12 L 37.007812 19 L 0 19 Z M 0 12 " clip-rule="nonzero"/></clipPath><clipPath id="0fcd7f5a84"><path d="M 0 18 L 37.007812 18 L 37.007812 25 L 0 25 Z M 0 18 " clip-rule="nonzero"/></clipPath><clipPath id="6a9503dc6e"><path d="M 4 30 L 33 30 L 33 37.007812 L 4 37.007812 Z M 4 30 " clip-rule="nonzero"/></clipPath></defs><g clip-path="url(#c5dbaaa1d3)"><path fill="#ffffff" d="M 0 0 L 37.007812 0 L 37.007812 37.007812 L 0 37.007812 Z M 0 0 " fill-opacity="1" fill-rule="nonzero"/><path fill="#ffffff" d="M 0 0 L 37.007812 0 L 37.007812 37.007812 L 0 37.007812 Z M 0 0 " fill-opacity="1" fill-rule="nonzero"/></g><path fill="#ff4633" d="M 18.503906 0 C 13.023438 0 8.101562 2.382812 4.714844 6.167969 L 32.292969 6.167969 C 28.90625 2.382812 23.984375 0 18.503906 0 " fill-opacity="1" fill-rule="nonzero"/><path fill="#fe9a01" d="M 32.292969 6.167969 L 4.714844 6.167969 C 3.121094 7.949219 1.867188 10.039062 1.054688 12.335938 L 35.953125 12.335938 C 35.140625 10.039062 33.886719 7.949219 32.292969 6.167969 " fill-opacity="1" fill-rule="nonzero"/><g clip-path="url(#395400cf29)"><path fill="#ffe145" d="M 35.953125 12.335938 L 1.054688 12.335938 C 0.371094 14.265625 0 16.339844 0 18.503906 L 37.007812 18.503906 C 37.007812 16.339844 36.632812 14.265625 35.953125 12.335938 " fill-opacity="1" fill-rule="nonzero"/></g><g clip-path="url(#0fcd7f5a84)"><path fill="#8dc62c" d="M 37.007812 18.503906 L 0 18.503906 C 0 20.667969 0.371094 22.742188 1.054688 24.671875 L 35.953125 24.671875 C 36.632812 22.742188 37.007812 20.667969 37.007812 18.503906 " fill-opacity="1" fill-rule="nonzero"/></g><path fill="#0292d5" d="M 35.953125 24.671875 L 1.054688 24.671875 C 1.867188 26.96875 3.121094 29.058594 4.714844 30.839844 L 32.292969 30.839844 C 33.886719 29.058594 35.140625 26.96875 35.953125 24.671875 " fill-opacity="1" fill-rule="nonzero"/><g clip-path="url(#6a9503dc6e)"><path fill="#841fff" d="M 32.292969 30.839844 L 4.714844 30.839844 C 8.101562 34.625 13.023438 37.007812 18.503906 37.007812 C 23.984375 37.007812 28.90625 34.625 32.292969 30.839844 " fill-opacity="1" fill-rule="nonzero"/></g></svg>